<svg width="3510" height="339" viewBox="0 0 3510 339" fill="none" xmlns="http://www.w3.org/2000/svg">
<path d="M424.647 21.5662C569.804 46.1737 563.879 230.102 707.746 260.893C878.358 297.408 947.236 92.4323 1121.95 98.1709C1279.86 103.358 1334.73 242.802 1492.27 254.384C1654.42 266.306 1730.79 146.248 1893.42 147.238C2050.91 148.196 2125.28 271.541 2281.5 252.382C2462.48 230.185 2485.07 -3.36256 2667.5 0.0367428C2863.21 3.68361 2862.48 267.237 3054.01 305.955C3187.94 333.028 3277.05 211.07 3401.88 264.899C3449.22 285.312 3510 339 3510 339H0C0 339 105.078 330.482 200.049 239.865C276.281 167.127 332.438 5.93443 424.647 21.5662Z" fill="#82A8AA"/>
</svg>
