<svg width="3360" height="399" viewBox="0 0 3360 399" fill="none" xmlns="http://www.w3.org/2000/svg">
<path d="M406.5 25.3832C545.453 54.3461 539.781 270.828 677.5 307.069C840.821 350.047 906.756 108.792 1074 115.546C1225.16 121.651 1277.69 285.776 1428.5 299.408C1583.72 313.439 1656.83 172.133 1812.5 173.298C1963.26 174.426 2034.46 319.602 2184 297.051C2357.25 270.925 2378.87 -3.95771 2553.5 0.0432459C2740.85 4.33557 2740.15 314.536 2923.5 360.106C3051.71 391.971 3137.01 248.427 3256.5 311.783C3301.81 335.809 3360 399 3360 399H0C0 399 100.588 388.975 191.5 282.318C264.474 196.707 318.231 6.98477 406.5 25.3832Z" fill="url(#paint0_linear_6_11)"/>
<defs>
<linearGradient id="paint0_linear_6_11" x1="1680" y1="0" x2="1680" y2="399" gradientUnits="userSpaceOnUse">
<stop stop-color="#89C6D3"/>
<stop offset="0.9375" stop-color="#61787B"/>
</linearGradient>
</defs>
</svg>
