<svg width="126" height="127" viewBox="0 0 126 127" fill="none" xmlns="http://www.w3.org/2000/svg">
<g id="python_svg">
<path id="btm_left" fill-rule="evenodd" clip-rule="evenodd" d="M88.0114 120.5C92.5446 116.889 93.0114 110.5 93.0114 110.5L93.0114 94L93.0114 78.5C93.0114 78.5 92.9991 72.8231 89.0114 69.5C83.0114 64.5 79.0114 64.5 79.0114 64.5L46.0114 64.5C46.0114 64.5 38.2436 64.3534 33.0114 58C29.8672 54.182 28.5114 48.5 28.5114 43C28.023 36.8096 28.5114 32 28.5114 32L16.5114 32C12.5783 32.3933 11.2799 33.4022 9.80579 34.5475C9.40594 34.8581 8.99318 35.1788 8.51141 35.5C-0.670547 41.6213 0.0114082 64.5 0.0114082 64.5C0.0114082 64.5 0.439678 80.0612 5.51141 86.5C11.0114 93.4825 20.5114 94 20.5114 94L62.5114 94L62.5114 97.5L32.0114 97.5L32.0114 110.5C32.0114 110.5 31.9887 117.908 37.0114 121.5C43.4843 126.129 52.8035 126.065 60.9336 126.009C61.465 126.006 61.9913 126.002 62.5114 126C62.6978 125.999 62.8845 125.998 63.0716 125.998C71.8073 125.962 81.2019 125.925 88.0114 120.5ZM46.0114 105.5C42.6977 105.5 40.0114 108.186 40.0114 111.5C40.0114 114.814 42.6977 117.5 46.0114 117.5C49.3251 117.5 52.0114 114.814 52.0114 111.5C52.0114 108.186 49.3251 105.5 46.0114 105.5Z" fill="url(#paint0_linear_1_17)"/>
<path id="top+right" fill-rule="evenodd" clip-rule="evenodd" d="M37 6C32.4669 9.6112 32 16 32 16V32.5V48C32 48 32.0123 53.6769 36 57C42 62 46 62 46 62H79C79 62 86.7678 62.1466 92 68.5C95.1442 72.318 96.5 78 96.5 83.5C96.9884 89.6904 96.5 94.5 96.5 94.5H108.5C112.433 94.1067 113.732 93.0979 115.206 91.9526C115.605 91.6419 116.018 91.3212 116.5 91C125.682 84.8787 125 62 125 62C125 62 124.572 46.4388 119.5 40C114 33.0175 104.5 32.5 104.5 32.5H62.5V29H93V16C93 16 93.0227 8.59158 88 5C81.5271 0.371452 72.2079 0.435052 64.0778 0.490536C63.5464 0.494163 63.0201 0.497755 62.5 0.499999C62.3136 0.500804 62.1269 0.501557 61.9399 0.502311C53.2042 0.537531 43.8095 0.575408 37 6ZM79 21C82.3137 21 85 18.3137 85 15C85 11.6863 82.3137 9 79 9C75.6863 9 73 11.6863 73 15C73 18.3137 75.6863 21 79 21Z" fill="url(#paint1_linear_1_17)"/>
</g>
<defs>
<linearGradient id="paint0_linear_1_17" x1="93" y1="29" x2="33" y2="97.5" gradientUnits="userSpaceOnUse">
<stop stop-color="#638487"/>
<stop offset="1" stop-color="#A8DCDC"/>
</linearGradient>
<linearGradient id="paint1_linear_1_17" x1="92.5" y1="28" x2="33" y2="98" gradientUnits="userSpaceOnUse">
<stop stop-color="#529FA4"/>
<stop offset="1" stop-color="#255053"/>
</linearGradient>
</defs>
</svg>
